<svg width="31" height="26" viewBox="0 0 31 26" fill="none" xmlns="http://www.w3.org/2000/svg">
  <path d="M30.524 3.58268C29.4107 4.07601 28.2147 4.40934 26.9573 4.56001C28.24 3.79201 29.224 2.57334 29.688 1.12268C28.488 1.83468 27.1587 2.35201 25.744 2.62934C24.6107 1.42401 22.9973 0.669342 21.2107 0.669342C17.7813 0.669342 15 3.45068 15 6.88268C15 7.36801 15.056 7.84001 15.16 8.29601C9.996 8.03601 5.42133 5.56268 2.35733 1.80534C1.824 2.72534 1.51733 3.79201 1.51733 4.92801C1.51733 7.08268 2.61466 8.98534 4.28 10.0987C3.26133 10.0653 2.304 9.78668 1.46666 9.32134V9.40134C1.46666 12.4107 3.60666 14.9213 6.44933 15.492C5.92666 15.6333 5.37866 15.708 4.81333 15.708C4.41333 15.708 4.02266 15.6707 3.644 15.5987C4.43466 18.0653 6.728 19.8627 9.44666 19.9107C7.32 21.5773 4.64133 22.5707 1.732 22.5707C1.23066 22.5707 0.735995 22.5413 0.249329 22.484C2.99866 24.248 6.26266 25.2747 9.76933 25.2747C21.196 25.2747 27.4427 15.8107 27.4427 7.60268C27.4427 7.33601 27.436 7.06667 27.424 6.80001C28.6373 5.92267 29.6907 4.83068 30.5213 3.58668L30.524 3.58268Z" fill="#1DA1F2"/>
  </svg>
  